Patient4_TMGait_0pt2_02_left_24_EMG.mot
version=1
nRows=30
nColumns=33
inDegrees=no
endheader
time	1LAddLong	2LGlutMax	3LGlutMed	4LIliopsoas	5LSemiMemb	6LBicFemLong	7LRecFem	8LVastMed	9LVastLat	10LGasMed	11LTibAnt	12lTibPost	13LPeroneusLong	14LSol	15LExtDigLong	16LFlexDigLong	17RAddLong	18RGlutMax	19RGlutMed	20RIliopsoas	21RSemiMemb	22RBicFemLong	23RRecFem	24RVastMed	25RVastLat	26RGasMed	27RTibAnt	28RTibPost	29RPeroneusLong	30RSol	31RExtDigLong	32RFlexDigLong
54.655	-0.014343	-0.021973	-0.11398	0.00351	-0.029907	-0.046082	-0.000305	0.007324	0.21118	-0.094147	0.032196	0.006256	0.067139	0.08316	0.68619	0.00473	0.027161	0.032501	-0.25436	-0.032043	-0.19638	-0.028534	-0.067291	0.017548	0.11185	0.007324	0.083771	0.031586	-1.5727	-0.00061	0.000763	-0.024261
54.656	-0.011444	-0.022125	-0.057373	-0.010681	-0.063171	-0.10025	-0.041199	0.015869	0.16327	-0.047913	-0.01297	0.004883	0.000153	0.076447	-0.085144	0.00351	0.049896	0.036011	-0.15045	-0.078125	-0.16708	-0.12375	0.005493	-0.003052	0.12558	-0.006714	0.15259	0.033722	-1.6667	0.25375	0.007324	-0.021973
54.657	0.013428	-0.042572	-0.07309	-0.009613	-0.078125	-0.28641	-0.019073	0.0177	-0.040436	-0.016785	0.10254	-0.005341	-0.04776	0.059662	0.16296	0.009918	0.038605	0.034027	-0.33691	-0.027618	-0.21851	-0.13641	0.022736	-0.011139	0.074768	-0.035858	0.014801	-0.0383	0.49225	0.10376	-0.003662	-0.016785
54.658	0.01236	-0.023956	-0.071259	0.008087	-0.045319	-0.36331	0.088806	0.006866	-0.18753	0.003815	0.35446	0.006104	-0.080414	0.0737	-0.33188	0.003967	0.014191	0.10849	-0.36789	0.035095	-0.073547	-0.021973	-0.013123	-0.048065	0.0354	-0.052643	-0.083466	-0.31815	1.0826	-0.41855	-0.001526	-0.02533
54.659	0.019073	0.020294	-0.004883	0.006714	0.066681	-0.22263	0.19821	-0.009613	-0.17166	-0.024872	0.31158	0.011444	-0.032501	0.071411	-0.12146	0.006561	0.015259	0.16708	-0.26215	0.050812	0.14542	0.075836	-0.011597	0.019531	0.049438	-0.038757	-0.06073	-0.25177	-0.4863	-0.18097	-0.004578	-0.019836
54.66	0.00824	-0.038757	0.080109	0.01236	0.068207	-0.20874	0.20157	0.002289	-0.069275	-0.062561	0.15762	0.000153	0.079498	0.075836	-0.13321	0.00946	0.034485	0.082245	-0.31433	-0.042572	0.20218	0.13245	-0.001373	-0.059052	0.022888	-0.019073	-0.054321	0.047607	-0.029449	0.30533	-0.003357	-0.011292
54.661	0.006256	-0.067291	0.071259	0.014648	-0.007629	-0.14008	0.21606	0.000305	-0.019989	-0.032196	-0.08316	0.008545	0.099182	0.074921	-0.14114	0.005798	0.023346	0.048523	-0.16953	-0.12451	0.19516	-0.007019	-0.022736	-0.034485	0.021973	-0.003815	-0.063324	0.36514	0.71365	0.39429	0.003204	-0.015564
54.662	0.003204	-0.039215	0.077209	0.02655	0.003662	-0.068665	0.24658	0.019073	-0.080566	0.013733	0.097198	0.000305	0.020294	0.097809	-0.20325	-0.005493	0.022888	0.049591	-0.18539	-0.1239	0.11978	-0.12207	-0.014191	-0.006409	0.027313	0.002594	-0.06897	0.095825	1.16	0.62057	-0.001068	-0.008545
54.663	-0.002441	0.026855	0.068817	0.029602	-0.013275	0.015259	0.2002	0.031433	-0.17456	0.01236	0.11002	0.000305	-0.06134	0.11261	0.29984	0.003815	0.008698	0.10498	0.022736	-0.093079	0.031281	-0.049286	0.040894	-0.026245	0.028076	0.001221	-0.021057	0.10239	0.46432	0.30197	-0.003662	-0.011749
54.664	-0.013123	0.012207	0.00351	0.010071	-0.030518	0.066681	0.18906	0.036926	-0.21545	-0.010986	0.065308	0.003052	-0.084076	0.044861	0.19669	0.00351	-0.031433	0.13977	-0.11887	-0.085297	-0.018921	-0.0354	0.036774	0.028076	0.02594	-0.000763	0.016785	0.039215	0.36468	0.10223	-0.000458	-0.014648
54.665	-0.009155	0.031891	-0.026855	0	0.023193	0.084686	0.11368	0.027313	-0.11261	-0.006409	-0.24017	-0.002289	-0.015106	0.081024	-0.60059	-0.006104	-0.021973	0.084076	-0.22583	-0.018005	0.070953	-0.14435	0.060272	-0.039673	0.014954	-0.002136	0.027771	0.095978	0.22659	-0.031281	-0.00412	-0.02121
54.666	-0.007477	0.017395	-0.059357	0.010376	-0.006104	0.14252	0.028992	0.003052	-0.047913	0.007477	-0.36453	0.001831	0.064392	0.09201	-0.42938	0.000305	0.002747	0.09613	-0.09964	0.042267	0.056915	-0.023193	0.081024	-0.062714	0.00473	0.008545	0.022278	0.0177	-0.31632	-0.0354	-0.002441	-0.024719
54.667	0.001373	0.031891	-0.08194	0.004425	-0.064697	0.17899	0.065613	-0.002289	-0.030212	-0.000305	-0.18234	0.008392	0.1976	0.077362	-0.40756	-0.009918	-0.002899	0.13489	-0.15915	0.22461	-0.019684	0.10101	0.043945	-0.048065	-0.00061	-0.00061	-0.026855	0.000916	-0.22492	-0.019226	0.001221	-0.017853
54.668	0.026398	0.050659	-0.044556	0.001831	-0.051422	0.14008	-0.020599	-0.037537	0.002747	-0.016937	0.032349	0.00412	0.2739	-0.035858	-0.16174	-0.002136	-0.015411	0.11017	-0.28564	0.26962	-0.10468	0.30395	0.082855	-0.050201	0.015564	0.002899	-0.013733	-0.034332	0.010376	-0.028381	-0.001678	-0.016937
54.669	0.037384	0.084534	0.00412	0.008087	0.016785	0.14969	-0.054626	-0.039063	-0.028992	0.000763	0.13809	0.000153	0.10742	-0.12985	0.10605	-0.003357	-0.049896	0.04776	-0.18433	0.025024	0.10101	0.35416	0.074158	-0.029602	0.000305	-0.002136	0.009613	-0.015869	0.41	-0.063324	0.003815	-0.018005
54.67	0.033417	0.12207	0.032196	0.020447	0.15335	0.057983	-0.009003	-0.026245	-0.041504	-0.007935	0.002441	0.00473	0.0177	-0.088806	0.11993	0.001984	-0.032349	0.049591	-0.099792	-0.1294	0.16068	0.15167	0.080109	0.003052	-0.004883	0.006866	0.004272	-0.023193	0.12482	-0.055847	0.000153	-0.024719
54.671	0.019073	0.14664	-0.020599	0.015869	0.14313	-0.087128	0.030823	-0.010376	-0.055084	-0.020752	-0.30518	0.00473	0.026855	-0.095825	0.072632	0.014954	-0.014954	0.075378	-0.015869	0.097504	0.024261	-0.15533	0.10513	-0.005951	0.010376	-0.00412	0.005951	-0.024261	0.2243	0.010223	0.000153	-0.022888
54.672	0.017853	0.1506	0.015411	0.014954	0.085754	-0.026398	0.049591	0.002747	0.016937	-0.014496	-0.23224	-0.001984	-0.004425	-0.13184	0.12146	0.005188	0.013275	0.058899	-0.041199	0.21881	-0.011444	-0.27802	0.11765	-0.053101	0.014954	-0.001678	0.024109	-0.027161	0.20294	-0.054779	-0.003204	-0.023346
54.673	0.011902	0.16022	0.12024	-0.001221	0.063019	-0.050201	0.0354	0.02243	0.079803	0.005341	-0.041962	-0.002441	-0.055847	-0.26093	0.14038	0.007935	0.019226	0.1004	-0.019073	0.17425	0.13229	-0.13687	0.066833	-0.065613	0.000763	-0.000305	0.008392	-0.018921	0.24429	-0.11871	-0.000916	-0.014954
54.674	0.012512	0.15793	0.04837	0.004425	0.046387	-0.04776	0.10407	0.02243	0.10559	-0.018005	0.011902	0.001068	-0.009613	-0.16739	-0.007782	0.004578	0.006104	0.054474	-0.15747	0.047607	0.18417	-0.066833	-0.031128	-0.014648	0.050964	0	-0.005188	-0.02243	0.02533	-0.097961	0	-0.015259
54.675	0.007782	0.20248	0.065155	0.021973	0.012665	0.059204	0.17044	0.005035	0.059357	0.006104	-0.039063	-0.005646	-0.024567	-0.14938	-0.12024	-0.002899	0.015869	0.15884	-0.15167	-0.10284	-0.097046	0.094452	0.034027	-0.08194	0.067596	-0.004578	0.033112	-0.018158	0.1683	-0.035858	-0.003204	-0.016174
54.676	-0.001678	0.17227	0.07431	0.008545	0.003052	0.014343	0.19302	0.008392	-0.056458	0.023041	-0.015564	0.001221	-0.032043	-0.17822	0.25116	0.003357	0.018158	0.12817	-0.2742	-0.19684	-0.39154	0.13214	0.093231	-0.084076	0.021057	-0.003357	0.074158	-0.029755	0.12802	-0.041199	-0.002441	-0.011292
54.677	0.016937	0.12238	-0.050201	-0.017853	0.003204	-0.076752	0.075684	0.007782	-0.14786	0.017395	-0.086365	-0.00061	-0.011292	-0.1358	0.12756	0.009155	0.01709	0.11215	-0.23529	-0.16846	-0.25497	0.009918	0.10544	-0.082855	0.042114	-0.001984	0.10864	-0.025787	-0.34531	-0.066681	0.000305	-0.017242
54.678	0.001373	0.063171	-0.13367	-0.010681	0.010071	0.1178	0.050812	0.020599	-0.13367	0.010834	-0.10666	0.000916	0.018616	-0.083923	-0.021667	-0.003052	0.002136	0.10056	-0.17441	-0.021515	0.019531	-0.18662	0.054474	-0.071564	0.033417	-0.007935	0.098267	-0.02533	-0.59219	-0.079193	-0.003815	-0.006714
54.679	-0.00351	0.042725	-0.11627	0.00412	0.004425	0.28168	0.043488	0.025177	-0.14023	0.009613	-0.084839	-0.002899	-0.002289	-0.10346	-0.099182	0.005798	0.03006	0.084534	-0.14206	0.078583	-0.059509	-0.35904	0.069122	-0.074921	0.045624	0.007324	-0.027771	-0.018463	0.050507	-0.12054	-0.007935	-0.001526
54.68	0.000916	0.002136	-0.12054	0.014801	-0.003662	0.36377	-0.007477	0.018158	-0.10773	-0.003052	-0.031891	0.00351	-0.011902	-0.026855	0.036011	0.009308	0.07309	0.070953	-0.1561	0.14511	-0.31052	-0.28778	0.06485	-0.092773	0.020599	0.004578	-0.042267	-0.01358	0.79453	-0.16846	-0.00412	-0.006714
54.681	-0.002136	-0.013275	-0.15472	0.022583	-0.006561	0.32928	0.025635	-0.001678	0.23697	0.002594	-0.005341	-0.004578	0.006866	0.035858	0.17197	0.00351	0.068817	0.08316	-0.19455	0.052643	-0.36163	0.045929	0.072021	-0.088959	0.014801	0.013733	0.054779	-0.025024	-0.41748	-0.18341	-0.002289	-0.005493
54.682	-0.005035	-0.00061	-0.10971	0.015717	-0.000458	0.20432	0.015869	-0.011292	0.34515	0.001678	-0.03952	-0.000153	0.001984	0.003967	0.11246	0.004578	0.037689	0.13428	-0.13626	0.014343	-0.32196	0.26154	0.063171	-0.068359	0.017853	0.017548	0.045319	-0.020142	-0.66696	-0.14938	-0.003357	-0.014496
54.683	-0.00885	0.053711	-0.034637	0.025635	-0.020752	0.20111	0.037842	0.003662	0.50323	0.016785	-0.007019	0.000458	-0.032196	-0.015106	0.094147	-0.006561	0.019379	0.19226	-0.08316	-0.007782	0.07309	0.26077	0.093536	-0.070801	0.002594	0.007172	0.036926	0.004883	-0.23086	-0.007782	-0.00412	-0.013123
54.684	-0.008392	0.044098	-0.14954	-0.007935	-0.00351	0.046539	0.067749	-0.007477	0.46432	0.01358	0.078888	-0.023193	-0.041351	-0.0177	0.12558	0.000763	-0.007172	0.14832	-0.1181	-0.04364	0.16907	0.29663	0.085754	-0.10391	-0.010834	-0.006561	-0.047455	0.003967	0.18402	0.23483	0.000305	-0.022278
